<svg xmlns="http://www.w3.org/2000/svg" width="900" height="800" viewBox="0 0 900 800"><rect width="900" height="800" fill="#f2eee3"/><g fill="#253632" font-family="sans-serif" font-size="22"><text x="35" y="38">Actual center-line vertices: concave (left) / convex control (right)</text><text x="455" y="80">z = 0, frontmost rim plane</text><text x="50" y="745">Blue: shipped hollow mesh. Orange: explicit reflected-depth control.</text><text x="50" y="777">Viewer is on +Z side. Geometry never follows the camera.</text></g><line x1="450" y1="90" x2="450" y2="710" stroke="#888" stroke-dasharray="8 8"/><polyline points="215.09129405021667,100 202.21890807151794,131.0947597026825 193.90541911125183,162.04192638397217 188.03982138633728,190.63305854797363 182.83692598342896,215.96056818962097 179.2169988155365,240.9687340259552 179.76611852645874,262.9336565732956 184.06434059143066,285.0827217102051 186.9606614112854,303.3788204193115 184.68462824821472,318.2147800922394 177.0521342754364,334.24071967601776 165.87647795677185,350.36493986845016 154.10267114639282,368.6239592730999 142.0880913734436,386.97825968265533 128.28108072280884,406.4442999660969 116.99005365371704,431.0193404555321 121.15402221679688,450.5745396018028 133.38875770568848,461.6487994790077 149.79275465011597,467.9803594946861 162.96533346176147,471.6742619872093 170.0242280960083,476.36799812316895 174.53286051750183,484.0650975704193 178.05714011192322,496.83009684085846 177.51408219337463,511.5425765514374 173.44368696212769,523.6296385526657 175.5695343017578,529.1580379009247 177.8097689151764,534.9869161844254 186.20567321777344,541.3122355937958 198.54408502578735,543.5579240322113 193.41473579406738,544.6621000766754 198.26189875602722,544.8095232248306 193.8442826271057,545.2880203723907 189.75786566734314,550.859147310257 186.05196475982666,559.0928852558136 184.5733880996704,567.2164559364319 191.54357314109802,579.4629395008087 205.59348464012146,594.2001938819885 206.2136471271515,617.7233278751373 203.79593968391418,643.418675661087 213.87630701065063,670.721560716629 233.20931196212769,688.5882377624512 256.2541723251343,696.6626167297363 277.6303768157959,700" fill="none" stroke="#275678" stroke-width="4"/><polyline points="684.9087059497833,100 697.781091928482,131.0947597026825 706.0945808887482,162.04192638397217 711.9601786136627,190.63305854797363 717.163074016571,215.96056818962097 720.7830011844635,240.9687340259552 720.2338814735413,262.9336565732956 715.9356594085693,285.0827217102051 713.0393385887146,303.3788204193115 715.3153717517853,318.2147800922394 722.9478657245636,334.24071967601776 734.1235220432281,350.36493986845016 745.8973288536072,368.6239592730999 757.9119086265564,386.97825968265533 771.7189192771912,406.4442999660969 783.009946346283,431.0193404555321 778.8459777832031,450.5745396018028 766.6112422943115,461.6487994790077 750.207245349884,467.9803594946861 737.0346665382385,471.6742619872093 729.9757719039917,476.36799812316895 725.4671394824982,484.0650975704193 721.9428598880768,496.83009684085846 722.4859178066254,511.5425765514374 726.5563130378723,523.6296385526657 724.4304656982422,529.1580379009247 722.1902310848236,534.9869161844254 713.7943267822266,541.3122355937958 701.4559149742126,543.5579240322113 706.5852642059326,544.6621000766754 701.7381012439728,544.8095232248306 706.1557173728943,545.2880203723907 710.2421343326569,550.859147310257 713.9480352401733,559.0928852558136 715.4266119003296,567.2164559364319 708.456426858902,579.4629395008087 694.4065153598785,594.2001938819885 693.7863528728485,617.7233278751373 696.2040603160858,643.418675661087 686.1236929893494,670.721560716629 666.7906880378723,688.5882377624512 643.7458276748657,696.6626167297363 622.3696231842041,700" fill="none" stroke="#9b5526" stroke-width="4"/></svg>